<svg width="356" height="82" viewBox="0 0 356 82" fill="none" xmlns="http://www.w3.org/2000/svg">
<path d="M18.0615 41.4747C18.0985 41.4607 18.1356 41.4479 18.1726 41.4326C18.1356 41.4467 18.0985 41.4594 18.0615 41.4747Z" fill="white" style="fill:white;fill-opacity:1;"></path>
<path d="M17.6649 41.6372C17.559 41.6832 17.4441 41.7278 17.3496 41.7738C17.5794 41.6729 17.8118 41.5746 18.0467 41.4814C17.9165 41.5325 17.7875 41.5836 17.6649 41.6372Z" fill="white" style="fill:white;fill-opacity:1;"></path>
<path d="M41.6073 57.3819C41.6073 48.4912 34.8077 41.1605 26.1366 40.3115V43.124V43.1138C33.2693 43.95 38.8241 50.0283 38.8241 57.3819C38.8241 60.4944 37.827 63.3759 36.138 65.73C33.8425 68.9498 30.2538 71.1827 26.1289 71.6704V74.4535C34.8039 73.6084 41.6073 66.2765 41.6073 57.3832V57.3819Z" fill="#F68D2E" style="fill:#F68D2E;fill:color(display-p3 0.9647 0.5529 0.1804);fill-opacity:1;"></path>
<path d="M17.3501 41.7737C11.4135 44.4509 7.29883 50.4564 7.29883 57.3823C7.29883 64.3083 11.2667 70.2435 17.3475 72.9998V69.9077C12.9915 67.4374 10.0513 62.7609 10.0513 57.3964C10.0513 50.3989 15.0661 44.6463 21.6716 43.2866C22.3738 43.1423 23.2891 43.0632 23.3517 43.0594V40.2686C23.1755 40.28 23.0006 40.3017 22.8244 40.3145C21.8656 40.386 20.9056 40.6005 20.2647 40.7511C19.2408 40.9912 18.0956 41.438 17.3488 41.775L17.3501 41.7737Z" fill="#F68D2E" style="fill:#F68D2E;fill:color(display-p3 0.9647 0.5529 0.1804);fill-opacity:1;"></path>
<path d="M23.3516 32.0993V40.2675V43.0583V74.4937C23.7167 74.5167 24.0831 74.5371 24.4521 74.5371C25.0176 74.5371 25.5755 74.5078 26.1271 74.4542V71.671L26.1334 43.1247V40.3122L26.1347 34.1752L51.1153 26.7322V79.0489H2.78314V6.09355L17.35 19.2382V41.7739C18.6024 41.2122 19.5509 40.9479 19.8918 40.8484C20.0169 40.8113 20.128 40.7845 20.128 40.7845L20.1331 17.8057L0 0V81.832H53.8998V22.9979L23.3529 32.1006L23.3516 32.0993Z" fill="#004899" style="fill:#004899;fill:color(display-p3 0.0000 0.2824 0.6000);fill-opacity:1;"></path>
<path d="M20.1337 71.1204V43.6924C20.1337 43.6924 19.8936 43.7652 19.5745 43.8813C19.3128 43.9771 18.9987 44.1047 18.7153 44.2286C18.5621 44.295 18.3974 44.3703 18.2416 44.4456C17.8739 44.6231 17.5344 44.8056 17.3505 44.918L17.3467 73.0009C17.9288 73.2652 18.5289 73.5001 19.1481 73.7018C19.4736 73.8078 19.8043 73.8946 20.1349 73.9801V71.1229C20.1349 71.1229 20.1337 71.1229 20.1324 71.1229L20.1337 71.1204Z" fill="#004899" style="fill:#004899;fill:color(display-p3 0.0000 0.2824 0.6000);fill-opacity:1;"></path>
<path d="M206.259 42.791H216.559C222.755 42.791 227.351 47.5504 227.351 53.501C227.351 59.4516 222.755 64.211 216.519 64.211H211.963V72.7455H206.259V42.791ZM211.962 48.0841V58.9166H216.147C219.389 58.9166 221.605 56.4961 221.605 53.4997C221.605 50.5034 219.389 48.0828 216.147 48.0828H211.962V48.0841Z" fill="#53565A" style="fill:#53565A;fill:color(display-p3 0.3255 0.3373 0.3529);fill-opacity:1;"></path>
<path d="M235.592 42.8994H241.337L251.965 72.8539H246.014L244.209 67.6426H232.719L230.914 72.8539H224.963L235.592 42.8994ZM234.606 62.1861H242.321L238.464 51.0241L234.607 62.1861H234.606Z" fill="#53565A" style="fill:#53565A;fill:color(display-p3 0.3255 0.3373 0.3529);fill-opacity:1;"></path>
<path d="M251.605 57.7686C251.605 49.234 258.253 42.3809 267.28 42.3809C274.091 42.3809 280.042 47.0177 281.766 53.6245H275.57C274.093 50.1366 271.343 48.0033 266.993 48.0033C261.617 48.0033 257.35 52.3938 257.35 57.7698C257.35 63.1459 261.618 67.5364 266.993 67.5364C271.137 67.5364 273.846 65.4848 275.405 62.1603H281.725C279.836 68.6433 274.052 73.1576 267.28 73.1576C258.129 73.1576 251.605 66.3044 251.605 57.7698V57.7686Z" fill="#53565A" style="fill:#53565A;fill:color(display-p3 0.3255 0.3373 0.3529);fill-opacity:1;"></path>
<path d="M285.194 42.791H290.898V72.7455H285.194V42.791Z" fill="#53565A" style="fill:#53565A;fill:color(display-p3 0.3255 0.3373 0.3529);fill-opacity:1;"></path>
<path d="M295.596 42.791H312.543V48.2488H301.299V54.9781H312.543V60.4359H301.299V72.7455H295.595V42.791H295.596Z" fill="#53565A" style="fill:#53565A;fill:color(display-p3 0.3255 0.3373 0.3529);fill-opacity:1;"></path>
<path d="M316.649 42.791H322.354V72.7455H316.649V42.791Z" fill="#53565A" style="fill:#53565A;fill:color(display-p3 0.3255 0.3373 0.3529);fill-opacity:1;"></path>
<path d="M325.84 57.7686C325.84 49.234 332.488 42.3809 341.515 42.3809C348.326 42.3809 354.277 47.0177 356 53.6245H349.805C348.328 50.1366 345.578 48.0033 341.228 48.0033C335.852 48.0033 331.585 52.3938 331.585 57.7698C331.585 63.1459 335.853 67.5364 341.228 67.5364C345.372 67.5364 348.081 65.4848 349.64 62.1603H355.96C354.071 68.6433 348.287 73.1576 341.515 73.1576C332.364 73.1576 325.84 66.3044 325.84 57.7698V57.7686Z" fill="#53565A" style="fill:#53565A;fill:color(display-p3 0.3255 0.3373 0.3529);fill-opacity:1;"></path>
<path d="M161.044 61.7476C165.025 60.2297 166.83 56.5771 166.83 52.8428C166.83 47.1795 162.686 42.7891 155.792 42.7891H146.396V72.7449H152.1V63.1022H155.483L161.333 72.7449H167.858L161.045 61.7476H161.044ZM155.319 57.924H152.098V48.1243H155.136C159.444 48.1243 161.085 49.8478 161.085 52.8428C161.085 54.9455 159.604 57.8397 155.319 57.9227V57.924Z" fill="#53565A" style="fill:#53565A;fill:color(display-p3 0.3255 0.3373 0.3529);fill-opacity:1;"></path>
<path d="M63.8872 57.7666C63.8872 49.2321 70.5348 42.3789 79.5622 42.3789C86.3732 42.3789 92.3238 47.0158 94.0473 53.6225H87.8516C86.3745 50.1347 83.6245 48.0014 79.2749 48.0014C73.8989 48.0014 69.6322 52.3918 69.6322 57.7679C69.6322 63.144 73.9001 67.5344 79.2749 67.5344C83.419 67.5344 86.1281 65.4828 87.6869 62.1584H94.0064C92.1182 68.6413 86.3336 73.1556 79.5622 73.1556C70.411 73.1556 63.8872 66.3024 63.8872 57.7679V57.7666Z" fill="#53565A" style="fill:#53565A;fill:color(display-p3 0.3255 0.3373 0.3529);fill-opacity:1;"></path>
<path d="M96.8394 42.791H102.544V67.289H113.376V72.7468H96.8394V42.7923V42.791Z" fill="#53565A" style="fill:#53565A;fill:color(display-p3 0.3255 0.3373 0.3529);fill-opacity:1;"></path>
<path d="M126.838 42.791H132.583L143.211 72.7455H137.26L135.455 67.5342H123.965L122.16 72.7455H116.209L126.838 42.791ZM125.853 62.0764H133.568L129.712 50.9145L125.855 62.0764H125.853Z" fill="#53565A" style="fill:#53565A;fill:color(display-p3 0.3255 0.3373 0.3529);fill-opacity:1;"></path>
<path d="M178.368 62.1109H176.823L176.812 72.7455H171.107V42.791H176.812L176.715 55.0343L186.791 42.791H193.817L181.71 57.4702L193.512 72.7455H186.63L178.367 62.1109H178.368Z" fill="#53565A" style="fill:#53565A;fill:color(display-p3 0.3255 0.3373 0.3529);fill-opacity:1;"></path>
</svg>